<?xml version="1.0" encoding="UTF-8"?>
<svg width="32px" height="32px" viewBox="0 0 32 32" version="1.1" xmlns="http://www.w3.org/2000/svg">
    <title>Stethoscope Favicon</title>
    <g stroke="none" stroke-width="1" fill="none" fill-rule="evenodd">
        <path d="M24,14 C26.209139,14 28,12.209139 28,10 C28,7.790861 26.209139,6 24,6 C21.790861,6 20,7.790861 20,10 C20,12.209139 21.790861,14 24,14 Z" fill="#ff4646" fill-rule="nonzero"></path>
        <path d="M24,12 C25.1045695,12 26,11.1045695 26,10 C26,8.8954305 25.1045695,8 24,8 C22.8954305,8 22,8.8954305 22,10 C22,11.1045695 22.8954305,12 24,12 Z" fill="#FFFFFF" fill-rule="nonzero"></path>
        <path d="M8,14 C10.209139,14 12,12.209139 12,10 C12,7.790861 10.209139,6 8,6 C5.790861,6 4,7.790861 4,10 C4,12.209139 5.790861,14 8,14 Z" fill="#ff4646" fill-rule="nonzero"></path>
        <path d="M8,12 C9.1045695,12 10,11.1045695 10,10 C10,8.8954305 9.1045695,8 8,8 C6.8954305,8 6,8.8954305 6,10 C6,11.1045695 6.8954305,12 8,12 Z" fill="#FFFFFF" fill-rule="nonzero"></path>
        <path d="M8,14 L8,22 C8,25.3137085 10.6862915,28 14,28 L18,28 C21.3137085,28 24,25.3137085 24,22 L24,14" stroke="#ff4646" stroke-width="2" stroke-linecap="round"></path>
        <path d="M14,20 L14,22 C14,23.1045695 14.8954305,24 16,24 C17.1045695,24 18,23.1045695 18,22 L18,20" stroke="#ff4646" stroke-width="2" stroke-linecap="round"></path>
    </g>
</svg>
